# xmcd CD database file
#
# Track frame offsets:
#	150
#	15405
#	28965
#	50062
#	68092
#	89610
#	106852
#
# Disc length: 1734 seconds
#
# Revision: 6
# Processed by: cddbd v1.5.1PL2 Copyright (c) Steve Scherf et al.
# Submitted via: CD2WAV32(JP) R3.22
#
DISCID=5706c407
DTITLE=土岐麻子 - Standards Gift～土岐麻子ジャズを歌う～
DYEAR=2005
DGENRE=Jazz
TTITLE0=Singin' In The Rain
TTITLE1=Norwegian Woods (This Bird Has Flown)
TTITLE2=You Make Me Feel Brand New
TTITLE3=It Don't Mean A Thing
TTITLE4=My Funny Valentine
TTITLE5=Tea For Two
TTITLE6=Break Out
EXTD=
EXTT0=
EXTT1=
EXTT2=
EXTT3=
EXTT4=
EXTT5=
EXTT6=
PLAYORDER=
